<?xml version="1.0" encoding="UTF-8"?>
<svg id="Calque_1" xmlns="http://www.w3.org/2000/svg" version="1.1" viewBox="0 0 232.44 233.63">
  <!-- Generator: Adobe Illustrator 29.4.0, SVG Export Plug-In . SVG Version: 2.1.0 Build 152)  -->
  <defs>
    <style>
      .st0 {
        stroke-width: .9px;
      }

      .st0, .st1, .st2, .st3, .st4, .st5, .st6 {
        stroke-miterlimit: 10;
      }

      .st0, .st2, .st3, .st7, .st5, .st6 {
        fill: #c7b299;
      }

      .st0, .st2, .st3, .st4, .st5 {
        stroke: #534741;
      }

      .st1 {
        stroke: #5d695e;
        stroke-width: 1.1px;
      }

      .st1, .st2, .st3, .st4, .st5 {
        stroke-linecap: round;
      }

      .st1, .st8, .st4 {
        fill: none;
      }

      .st9 {
        fill: #534741;
      }

      .st10 {
        fill: #5d695e;
      }

      .st11 {
        fill: #998675;
      }

      .st3, .st4 {
        stroke-width: 1.3px;
      }

      .st5 {
        stroke-width: 1.2px;
      }

      .st6 {
        stroke: #c7b299;
        stroke-width: .75px;
      }
    </style>
  </defs>
  <g id="Calque_5">
    <g>
      <path class="st10" d="M182.4,64.92c1-2.3,1.2-4.6,1.1-6.9-.1-2.3-1.4-4.3-2.2-6.3-1.8-4-3.6-8.7-7.6-11.2-.3-.1-.5.2-.3.4,2.5,3.4,2.8,7.9,3.7,11.9.4,2.1.2,4.3,1.1,6.3.8,2,1.8,4,3.7,5.8.2.2.4.1.5,0h0Z"/>
      <path class="st10" d="M188.5,51.12c4,2.8,8.5,5.1,12.9,7.3,2.5,1.3,7.3,1.6,9.3-.8,0-.2,0-.4-.2-.4-.9-.3-1.8-1-2.6-1.4-1.6-.9-3.2-1.8-5.1-2-1.9-.2-6.5-1.4-8.4-1.8l-5.7-1.3c-.3,0-.4.3-.2.4h0Z"/>
      <path class="st10" d="M197.9,36.72c-1.8-2-4.1-3.2-6.5-4.2-2.3-.9-4.9-.8-7.3-1-2.49-.2-4.97-.3-7.46-.3-.03,0-.05,0-.08,0-2.49.2-5.17.2-7.36,1.5-.3.2,0,.6.2.5,4.7-.5,9.3,1.4,13.8,2.6,2.3.7,4.5,1.9,6.9,2,2.6.2,5,.2,7.6-.6.2,0,.3-.4.2-.5h0Z"/>
      <path class="st10" d="M169.2,32.62c3.1-.7,6-1.7,8.9-3.1,2.3-.9,4.7-2.4,5.5-5,.3-.9.4-2-.2-2.8,0-.1-.3-.1-.3,0-.8,1.2-2.2,1.8-3.2,2.6-1.2.8-2.1,2-3.2,2.8-2.4,1.9-4.9,3.5-7.5,5.2-.2,0,0,.4.1.3h-.1Z"/>
      <path class="st10" d="M194.6,57.52c.8,4.5,2.5,8.7,4,12.9,1,2.6,4,5.2,7.1,4.8.2,0,.3-.2.2-.4-.9-2.5-1.1-5.2-3-7.2-2.8-3-5.4-7.2-8-10.4-.1-.2-.5,0-.5.2h0l.2.1Z"/>
      <path class="st10" d="M190.9,54.02c-1.2,4.4-1.5,8.9-2,13.4-.2,2.8,1.3,6.5,4.3,7.4.2,0,.3,0,.4-.2.3-2.6,1.3-5.2.4-7.7-1.2-3.9-1.7-8.9-2.6-12.9,0-.3-.5-.3-.5,0h0Z"/>
      <path class="st10" d="M168.6,71.72c3.3-3.3,5.5-7.3,6.3-11.8.2-1.5.4-3,.6-4.5.7-5.7,1.4-13-3.2-17.4-.2-.2-.5.1-.4.3.8,1.2,1.2,2.5,1.4,3.9.5,4.2-.6,8.4-1.7,12.4-.4,1.4-.9,2.7-1.5,4-1.1,2.7-1.6,5.5-2,8.4-.2,1.5-.3,3-.1,4.6,0,.2.3.3.5.2h0l.1-.1Z"/>
      <path class="st10" d="M206.4,41.02c-2.7-.5-5.2-.5-7.6-.3-2.4.1-4.7,1.1-7.1,1.5-4.6.7-9.7,1.6-13.9-.9h-.3v.3c3.6,3.9,9.6,4.1,14.6,4.2,2.5,0,5.2.2,7.6-.7,2.5-.8,4.9-1.9,6.8-3.8.1-.1,0-.4-.1-.4h0v.1Z"/>
      <path class="st10" d="M166,51.32c1.2-2.1,1.5-4.4,1.3-6.6-.1-2.3-1.3-4.3-2.3-6.2-2-3.9-5.2-7.3-9.2-9.1-.1,0-.3,0-.3.1v.3c2.2,2.2,4,4.5,5.1,7.4.8,1.8,1.4,3.7,1.6,5.6.5,3.1,1.6,5.6,3.4,8.6,0,.2.4.2.5,0h0l-.1-.1Z"/>
      <path class="st1" d="M172.3,32.62s-6.3.9-10-.4"/>
    </g>
    <path class="st11" d="M151.8,26.92c16.69,6.09,31.74,16.51,43.35,29.94.36.41.29,1.04-.13,1.38h0c-.4.32-.98.26-1.32-.13-11.13-13.03-25.58-23.33-41.64-29.38-.48-.18-.73-.7-.57-1.19l.21-.63h.1Z"/>
  </g>
  <g id="Feuilles">
    <path class="st10" d="M73.4,30.02c1.5-.4,3.2-.6,4.7-.3.5.2,1,.5,1.4.9h0c-1.1,0-2-.2-3-.4-1-.1-2-.2-3-.2h-.1Z"/>
    <path class="st10" d="M73.8,30.92c.7-1,1.2-2,1.7-3,.4-1.2.7-2,1.6-2.9h.1c.7,1.3.2,2.6-.7,3.5-.7,1-1.6,1.8-2.6,2.4,0,0-.2,0-.1-.1h0v.1Z"/>
    <path class="st10" d="M68.2,29.02c.4.6.5,1.1.4,1.7,0,.5-.5.9-.8,1.3-.6.8-1.3,1.5-2,2.1h-.2l.8-2.7c.1-1.1.4-1.6,1.6-2.2h.2v-.2Z"/>
    <path class="st10" d="M67.2,34.12c.5-.5.9-.6,1.3-.7.4,0,.8.3,1.1.5.7.4,1.6.9,1.9,1.8,0,0-.1.2-.2,0-.6-.4-1.4-.3-2.1-.3-.4,0-.8.2-1.1,0-.3-.2-.7-.5-1-1.1v-.2h.1Z"/>
  </g>
  <g id="Calque_4">
    <g id="Calque_9">
      <path class="st7" d="M77.3,96.92h75.6c.9,0,1.6.7,1.6,1.7v55.9c0,.9-.7,1.8-1.6,1.8l-75.7,1.9c-.9,0-1.7-.7-1.7-1.6v-57.9c0-.9.7-1.7,1.7-1.7l.1-.1Z"/>
    </g>
    <path class="st3" d="M74.5,118.29c-.3-11.7-.5-22.17-.5-22.17h-6.6l.3,18.4c4,.9,3.9,6.9.3,8.5l.5,13.1.6,26.2c-.2.3.2.6.7.6h5c.5,0,.9-.3.9-.7,0-4.4-.8-26.1-1.2-43.8v-.13Z"/>
    <path class="st5" d="M162.5,115.62v-2.2l.4-18.1h-6.4s-.4,8.8-.7,20.6c-.2,8.3,0,18.6-.2,26.8-.2,9.9-.6,17.6-.6,19.8,0,.3.3.6.6.6h5.3c.3,0,.6-.3.6-.6l.5-22.3.3-16c-3.9-1.1-3.6-7.1.1-8.5h0l.1-.1Z"/>
    <line class="st4" x1="75.6" y1="157.32" x2="155.1" y2="156.22"/>
    <path class="st3" d="M77.7,100.52l.2,3.6v7.7l-.2,4c0,.4.3.8.7.8l9.7.2h12.4l10.4-.2c.6,0,1.1-.5,1.1-1.1l-.2-10.4.2-5.2c0-.3-.3-.6-.6-.6l-20.9.7h-12.4c-.2.1-.4.3-.4.6h0v-.1Z"/>
    <path class="st3" d="M151.48,101.31v5.23c.02-.56,0-.03,0,0-.08.45,0,4.97,0,4.97v4.59c0,.45-.37.81-.81.81h-16.26s-.02,0-.04,0c-.53-.09-15.89,0-15.89,0-.3,0-.6-.2-.6-.6v-11.64c.09-.45,0-4.56,0-4.56,0-.2.1-.3.3-.3l11.9.2,20.7.7c.3,0,.7.32.7.62"/>
    <path class="st3" d="M80.1,123.22v17.8c.1,0,0,11.3,0,11.3,0,.2.2.4.4.4h8.5c0-.1,16.6-.4,16.6-.4h7.2c.22,0,.4-.18.4-.4v-28.6c0-.22-.18-.4-.4-.4h-24.68s-.02,0-.04,0c-1.03-.05-7.99.29-7.99.29"/>
    <path class="st3" d="M119.8,125.02v26.3c0,.2.1.3.3.3l9.8-.2,19.5-.2c.2,0,.3-.1.3-.3v-25.8c0-.22-.18-.4-.4-.4l-14.91-.05s-.02,0-.03,0c-.34,0-10.06.04-10.06.04h-4.2c-.2,0-.3.1-.3.3h0Z"/>
    <path class="st3" d="M67.75,95.71"/>
    <path class="st3" d="M68.02,95.88l-4.17.03c-.3,0-.6-.3-.6-.7v-3c0-.4.3-.7.7-.7l18.2-.2,67.3-.2,16.8-.2c.4,0,.8.4.8.8v2.6c0,.3-.2.5-.5.5l-62.6.7-35.93.37"/>
    <path class="st3" d="M92.8,107.32c-.3,0-.5.3-.4.6s.3.5.5.6.5.1.8.1c.2,0,.5,0,.7-.1s.4-.3.4-.5c0-.4-.2-.7-.5-1-.4-.3-.9-.6-1.4-.4-.2,0-.3.2-.5.3-.2.2-.4.4-.4.7,0,.4.5.6.9.7.2,0,.4.1.6,0,.1,0,.2-.2.3-.3.2-.3.3-.7.1-.9s-.5-.1-.6,0-.2.5,0,.7c.2.2.4.3.6.4.2,0,.4,0,.5-.2s-.2-.5-.4-.6c-.1,0-.3-.2-.5-.2s-.3.1-.3.3c0,.1.1.2.2.3h.3c.1,0,.2-.2.2-.3s-.2-.2-.3,0,0,.3.1.2"/>
    <path class="st3" d="M92.5,107.62h.1"/>
    <path class="st3" d="M135.9,107.52c-.3.2-.3.6-.1.9s.5.5.8.6c.4.2,1,.2,1.3-.2.2-.2.2-.5.2-.8v-.7c0-.2-.2-.3-.4-.4-.2-.1-.5-.2-.8-.3h-.3c-.1,0-.2.1-.3.2-.2.2-.4.6-.4.9v.5c0,.1.2.2.3.2.3.1.7.2,1,0s.6-.5.4-.9c-.1-.3-.5-.4-.8-.5h-.2s-.2.1-.2.2-.2.3-.2.4,0,.4.2.4h.3c.2,0,.5,0,.7-.2s.2-.4,0-.7c-.1-.2-.4-.3-.6-.2s-.4.3-.3.5.4.3.5.1,0-.5-.1-.5-.3,0-.3.2,0,.3.1.3"/>
    <path class="st0" d="M74.3,161.32h-3.9c-1.1,0-1.9.7-1.9,1.6s1.1,1.5,1.7,1.8c.3.2.6.5.6.8v2.1h3.4v-2.1c0-.3.2-.6.6-.8.5-.3,1.7-1.1,1.7-1.8s-.9-1.6-1.9-1.6h-.3Z"/>
    <path class="st0" d="M160.3,161.32h-3.9c-1.1,0-1.9.7-1.9,1.6s1.1,1.5,1.7,1.8c.3.2.6.5.6.8v2.1h3.4v-2.1c0-.3.2-.6.6-.8.5-.3,1.6-1.1,1.6-1.8s-.9-1.6-1.9-1.6h-.2Z"/>
  </g>
  <g id="Calque_11">
    <rect class="st3" x="154.6" y="105.32" width="10.6" height="4.3" rx="1.9" ry="1.9"/>
    <rect class="st5" x="65.4" y="105.52" width="10.2" height="4.1" rx="1.9" ry="1.9"/>
    <rect class="st5" x="65.4" y="109.62" width="10.2" height="4.1" rx="1.9" ry="1.9"/>
    <rect class="st3" x="154.6" y="109.92" width="10.6" height="4.4" rx="1.9" ry="1.9"/>
  </g>
  <path class="st11" d="M44,200.22c-26.1-24.6-37.7-62.2-30-97.2,6.8-32.8,30.4-61.2,61.2-74.2l.6,1.4c-30.4,12.8-53.8,40.8-60.6,73.1-5.7,26-.8,54,13.4,76.5,4.6,7.2,10,13.8,16.1,19.7l-.7.8h0v-.1Z"/>
  <path class="st11" d="M219.4,124.92c.2,23.8-8.1,47.5-23.1,66l-.8-.6c15.2-18.2,23.8-41.7,23.9-65.4h0Z"/>
  <g>
    <circle class="st8" cx="116.25" cy="129.56" r="103.54"/>
    <path class="st9" d="M67.95,196.51c.6.51,1.13,1.01,1.59,1.5.45.49.81.94,1.08,1.38.27.43.44.81.52,1.15.07.34.03.61-.15.81-.11.13-.3.29-.56.46-.26.17-.54.34-.84.5-.3.17-.61.31-.92.45-.32.13-.58.23-.8.28-.08,0-.14-.07-.18-.17-.04-.11,0-.19.1-.24.88-.32,1.36-.73,1.44-1.24.08-.54-.1-1.26-.53-2.18-.43-.92-1.17-1.82-2.21-2.7-1.31-1.11-2.62-1.88-3.95-2.31-1.32-.43-2.62-.55-3.9-.37-1.28.18-2.53.66-3.76,1.44-1.22.78-2.39,1.82-3.5,3.13-.8.94-1.41,1.91-1.83,2.92-.43,1.01-.64,2.01-.65,3,0,.99.21,1.95.63,2.88.43.92,1.09,1.77,2,2.54,1.21,1.03,2.53,1.51,3.97,1.44s2.85-.57,4.24-1.53c.1-.06.19-.04.26.05.07.09.07.17,0,.26-.37.29-.79.6-1.28.92-.49.32-.97.61-1.44.85-.47.25-.9.45-1.29.6s-.64.2-.77.14c-.71-.25-1.44-.6-2.2-1.05-.76-.45-1.51-.98-2.25-1.61-2.35-1.99-3.65-4.03-3.89-6.12-.25-2.09.45-4.09,2.08-6.02,1.21-1.42,2.59-2.54,4.15-3.33s3.18-1.25,4.87-1.34,3.38.14,5.09.71c1.71.57,3.33,1.51,4.88,2.82Z"/>
    <path class="st9" d="M59.43,215.9c2.79-2.74,5.52-5.08,8.18-7.03s5.15-3.47,7.48-4.57c2.32-1.1,4.41-1.77,6.26-2.01,1.85-.24,3.34-.02,4.47.66.47.28.78.61.92,1s.17.76.09,1.13c-.08.37-.27.72-.56,1.03-.29.31-.62.55-1,.71-.09.02-.16,0-.2-.04s-.05-.12,0-.19c.32-.32.43-.74.33-1.26-.1-.52-.48-.98-1.14-1.37-1.02-.61-2.15-.91-3.39-.91s-2.68.38-4.31,1.13c-1.63.75-3.49,1.94-5.58,3.55-2.09,1.61-4.51,3.72-7.25,6.34.59-.34,1.2-.63,1.84-.86s1.28-.39,1.92-.47c.64-.08,1.26-.07,1.87.02.61.09,1.18.3,1.71.62.23.13.36.29.39.47.04.17,0,.34-.08.49-.15.25-.4.47-.75.67-.81.46-1.56.99-2.25,1.58-.69.59-1.21,1.19-1.57,1.79-.16.26-.26.5-.3.7-.04.2,0,.35.16.44.19.11.46.14.8.08.35-.06.67-.17.96-.33.08,0,.13.04.16.12s.02.14-.04.19c-.49.27-1.06.43-1.69.49-.64.06-1.13-.02-1.49-.24-.32-.19-.53-.44-.63-.74-.1-.3-.02-.67.24-1.11.2-.34.45-.68.75-1.03.3-.35.61-.68.94-1,.33-.32.68-.62,1.04-.9s.72-.53,1.07-.73c.23-.17.37-.3.43-.4.1-.17.06-.31-.13-.42-.36-.21-.83-.31-1.41-.28-.58.03-1.22.17-1.91.43-.7.26-1.44.63-2.22,1.11-.79.48-1.57,1.06-2.34,1.76-.12.11-.35.15-.69.12-.34-.03-.68-.13-1-.33-.19-.11-.21-.24-.07-.39Z"/>
    <path class="st9" d="M73.13,216.94c-.08.01-.12-.03-.13-.12s.02-.16.06-.21c1.02-.24,2.34-.36,3.95-.37.16.08.19.2.11.38-.48.33-.97.71-1.47,1.12-.51.42-.98.84-1.42,1.28-.44.43-.84.87-1.19,1.29-.35.43-.61.8-.76,1.12-.19.4-.15.66.13.79.22.1.48.11.78.03.3-.09.66-.21,1.08-.38.06-.02.11,0,.14.09s0,.16-.08.24c-.68.31-1.32.51-1.89.63-.58.11-1.07.07-1.46-.12-.69-.33-.88-.83-.57-1.48.17-.36.43-.75.77-1.19.34-.43.73-.86,1.16-1.27.43-.42.88-.81,1.34-1.19.46-.38.9-.68,1.31-.93-.28.01-.59.05-.94.1-.35.05-.66.11-.91.18ZM77.93,215.11c-.09.03-.15,0-.19-.09s-.05-.2-.04-.33c.01-.13.05-.26.11-.39.06-.13.15-.23.25-.3.35-.17.84-.37,1.47-.59.63-.22,1.25-.37,1.85-.45.05,0,.09.04.13.12.04.08.03.13,0,.16-.6.18-1.21.44-1.84.78-.63.34-1.21.71-1.73,1.09Z"/>
    <path class="st9" d="M85.48,226.17c.06-.03.11,0,.15.07s.04.15-.01.22c-.56.38-1.16.67-1.79.88-.63.21-1.18.23-1.66.05-.35-.13-.58-.35-.69-.65-.11-.3-.1-.64.04-1.01.27-.72.69-1.46,1.27-2.2.57-.75,1.24-1.47,2-2.18.12-.12.2-.26.27-.43.08-.21.02-.34-.16-.41-.76-.29-1.8-.08-3.12.61-1.32.69-2.79,2.03-4.42,4-.04.05-.13.09-.26.09-.13,0-.28,0-.43-.02-.16-.02-.31-.05-.46-.08-.15-.03-.27-.07-.35-.1-.1-.04-.17-.09-.21-.15-.04-.06-.01-.13.07-.22.68-.75,1.4-1.59,2.16-2.52.76-.93,1.47-1.87,2.14-2.84.14-.18.21-.33.2-.44,0-.11-.06-.18-.16-.22-.23-.08-.48-.07-.76.05-.28.12-.54.26-.79.42-.08.02-.13-.01-.16-.09-.03-.08-.02-.15.02-.2.16-.11.36-.22.6-.34.24-.12.51-.23.8-.32.29-.09.58-.15.87-.17.29-.02.56.02.81.11.35.13.54.33.57.58.03.26-.04.53-.22.82-.27.42-.54.8-.8,1.16s-.57.76-.92,1.19c.42-.36.89-.7,1.42-1,.53-.31,1.08-.56,1.66-.75.58-.19,1.16-.3,1.76-.33.6-.02,1.18.07,1.76.29.25.09.41.23.5.4.09.17.1.34.04.51-.11.29-.28.52-.51.69-.73.62-1.39,1.29-2.01,2.01-.61.72-1.04,1.41-1.29,2.07-.2.54-.13.87.22,1,.23.08.49.08.78-.02.3-.1.66-.28,1.08-.54Z"/>
    <path class="st9" d="M95.6,224.18c-.32,1.21-2.14,1.62-5.47,1.24-.08.21-.15.42-.21.63-.07.21-.13.43-.19.67-.14.55-.13,1.01.05,1.38.18.36.54.62,1.1.76.4.11.85.1,1.34-.03.49-.12.9-.33,1.25-.63.1-.02.16.01.18.1.02.09.01.17-.03.25-.57.44-1.23.78-1.98,1-.75.23-1.5.24-2.25.05-.75-.19-1.23-.52-1.47-.98-.23-.46-.26-1.03-.08-1.71.17-.66.49-1.31.95-1.95.46-.64.99-1.2,1.58-1.69.59-.48,1.22-.84,1.88-1.06.66-.23,1.28-.26,1.85-.11.57.15.99.44,1.26.86.27.42.35.83.24,1.24ZM93.02,222.69c-.49-.13-.97,0-1.44.36-.47.37-.89,1.01-1.27,1.94,1.05.16,1.86.16,2.42,0,.56-.16.9-.45,1.01-.88.08-.32.06-.62-.08-.89s-.35-.45-.65-.53Z"/>
    <path class="st9" d="M117.25,224.88c.55.03.96.26,1.25.69.28.42.41.89.38,1.39,0,.11-.06.19-.15.24-.09.05-.18.02-.26-.1-.16-.25-.39-.46-.67-.63s-.64-.27-1.06-.29c-.53-.03-1,.07-1.41.3-.41.23-.81.53-1.19.9s-.76.8-1.12,1.27-.75.94-1.17,1.4c.54.54,1.17.98,1.87,1.32.71.34,1.48.53,2.31.58.44.03.81-.04,1.12-.18.31-.15.57-.34.78-.57.07-.11.17-.13.29-.08.12.05.12.17,0,.36-.32.55-.76.99-1.33,1.31-.57.32-1.28.45-2.14.4-.83-.05-1.6-.24-2.3-.58-.7-.34-1.31-.79-1.85-1.35-.58.47-1.23.84-1.97,1.11-.73.27-1.6.37-2.61.31-1.21-.07-2.15-.42-2.83-1.06-.68-.63-.99-1.48-.92-2.53.04-.72.22-1.33.54-1.82.31-.49.71-.91,1.2-1.27.48-.36,1.03-.66,1.62-.91.6-.25,1.2-.51,1.81-.79-.06-.47-.1-.93-.12-1.38-.02-.45-.01-.89.01-1.3.03-.53.16-1.06.39-1.6s.53-1.01.89-1.42c.37-.41.78-.74,1.25-.98s.94-.36,1.42-.33c.66.04,1.14.26,1.43.66.3.4.43.9.39,1.5-.04.64-.18,1.18-.43,1.64-.25.46-.56.87-.95,1.23-.39.36-.82.68-1.31.96-.49.28-.99.55-1.49.8.18,1.07.49,2.09.93,3.06.44.97.99,1.83,1.65,2.58.47-.52.92-1.08,1.35-1.66.43-.58.87-1.12,1.32-1.61.45-.49.92-.89,1.41-1.19.49-.3,1.05-.43,1.66-.4ZM104.14,228.47c-.06.99.16,1.77.67,2.35.51.58,1.32.9,2.44.97.59.04,1.13-.03,1.62-.2.48-.17.94-.41,1.38-.71-.72-.81-1.31-1.75-1.77-2.82-.46-1.06-.78-2.16-.98-3.3-.43.22-.85.45-1.25.69-.4.24-.75.51-1.06.8-.3.29-.55.62-.74.98-.19.36-.29.78-.32,1.24ZM108.7,220.71c-.06.94-.01,1.92.12,2.92.73-.4,1.35-.88,1.85-1.46.51-.58.79-1.36.85-2.35.03-.46-.05-.86-.23-1.19-.18-.33-.49-.51-.93-.53-.51-.03-.9.15-1.17.54-.28.39-.44,1.08-.5,2.07Z"/>
    <path class="st9" d="M155.26,223.9c.03-.05.1-.09.19-.12.1-.02.14.02.12.14-.26.84-.64,1.54-1.13,2.11-.49.57-1.08.94-1.76,1.11-.94.24-1.81.17-2.61-.2s-1.55-.95-2.27-1.74c-.71-.78-1.38-1.73-2-2.84-.62-1.11-1.24-2.28-1.85-3.51-.04-.15-.02-.25.06-.29.09-.09.27-.21.54-.36.27-.15.51-.29.72-.44.06-.04.16-.06.31-.06.15,0,.33-.01.54-.03.21-.02.46-.06.74-.12.28-.06.59-.18.93-.36.86-.45,1.46-1.1,1.78-1.97s.33-1.93,0-3.19c-.16-.62-.41-1.18-.75-1.68-.34-.5-.77-.91-1.27-1.23-.5-.31-1.08-.53-1.73-.65-.65-.12-1.38-.11-2.19.03-.37.84-.65,1.85-.82,3s-.26,2.46-.28,3.92c-.04,2.51-.26,4.72-.67,6.63-.41,1.91-.99,3.54-1.73,4.89-.75,1.35-1.65,2.44-2.71,3.26-1.06.83-2.24,1.41-3.54,1.74-1.47.38-2.63.31-3.47-.19-.84-.5-1.4-1.29-1.68-2.38-.25-.98-.19-1.92.19-2.81.37-.89.93-1.59,1.66-2.09.19-.14.27-.08.25.17-1.07.98-1.43,2.12-1.1,3.42.27,1.04.81,1.8,1.63,2.26s1.89.52,3.21.18c1.07-.27,1.97-.63,2.7-1.08.74-.45,1.34-1.14,1.81-2.06.47-.92.81-2.17,1.04-3.72s.36-3.58.41-6.07c.06-3.78.73-6.71,2.01-8.79-1.97.57-3.57,1.38-4.81,2.44-1.24,1.06-2.18,2.45-2.83,4.18-.07.06-.15.08-.22.06-.08-.03-.1-.1-.09-.22.62-1.73,1.67-3.26,3.12-4.59s3.36-2.36,5.72-3.08c.65-.73,1.43-1.35,2.32-1.85.11-.03.17,0,.19.07.02.08-.02.15-.11.22-.54.3-1.03.74-1.47,1.33.9-.23,1.73-.29,2.5-.2.77.1,1.47.32,2.08.66s1.12.78,1.53,1.31.69,1.12.86,1.76c.23.9.27,1.75.13,2.56-.15.81-.46,1.55-.93,2.21-.48.67-1.12,1.23-1.92,1.7-.8.47-1.75.78-2.84.95.75,1.58,1.45,2.88,2.12,3.9.67,1.02,1.32,1.8,1.94,2.35.63.54,1.26.88,1.89,1.01.64.13,1.28.12,1.94-.05.72-.19,1.26-.72,1.6-1.6Z"/>
    <path class="st9" d="M158.53,210.1c.1-.15.32-.24.66-.27.34-.03.68-.06,1.01-.07.07,0,.12.01.16.07.04.05.05.11.03.17-.13.24-.31.49-.53.75-.22.27-.46.54-.72.81s-.52.54-.78.81c-.26.26-.5.5-.72.7-.08.04-.14.02-.18-.06-.04-.08-.04-.16-.01-.25.19-.31.39-.72.6-1.21.21-.49.37-.98.48-1.45ZM162.26,214.78c.55,1.13-.56,2.63-3.34,4.5.08.21.16.41.25.61.09.2.18.41.29.63.25.51.56.85.94,1.01.37.16.82.11,1.33-.14.38-.18.71-.48,1-.89.29-.41.47-.84.54-1.29.06-.08.13-.09.2-.04s.12.12.14.21c-.14.71-.43,1.39-.85,2.05-.42.66-.98,1.16-1.67,1.5s-1.27.41-1.75.21c-.48-.2-.87-.61-1.18-1.24-.3-.61-.48-1.31-.55-2.1-.07-.79-.03-1.56.1-2.31.13-.75.38-1.43.73-2.03.35-.6.8-1.03,1.33-1.29.53-.26,1.04-.32,1.51-.17.48.15.81.41.99.78ZM159.33,215.33c-.46.22-.74.63-.86,1.21-.12.58-.02,1.35.3,2.3.9-.56,1.51-1.09,1.83-1.58s.39-.93.2-1.33c-.14-.3-.36-.5-.64-.62s-.56-.11-.83.02Z"/>
    <path class="st9" d="M174.09,212.8c.01-.06.06-.08.15-.07s.14.06.17.15c-.04.68-.17,1.33-.39,1.96-.22.63-.54,1.08-.97,1.34-.32.2-.63.25-.93.16-.31-.09-.56-.31-.77-.65-.41-.65-.74-1.43-.98-2.34-.25-.91-.42-1.88-.51-2.91-.03-.17-.08-.32-.18-.47-.12-.19-.26-.23-.43-.12-.69.43-1.16,1.38-1.41,2.85-.25,1.47-.09,3.45.48,5.94.02.07-.01.16-.09.27-.07.11-.17.22-.28.33s-.23.21-.35.31c-.12.1-.22.17-.29.22-.09.06-.17.08-.24.08-.07,0-.12-.07-.14-.19-.18-1-.41-2.08-.69-3.25-.27-1.16-.59-2.31-.96-3.43-.06-.22-.14-.36-.23-.42-.09-.06-.18-.06-.27,0-.21.13-.35.34-.42.63-.08.29-.12.59-.15.89-.03.07-.09.09-.17.07-.08-.03-.13-.07-.15-.14.01-.19.04-.42.1-.68.05-.27.13-.54.24-.83s.24-.55.4-.79c.16-.24.35-.43.58-.57.32-.2.59-.23.81-.1.22.13.4.36.52.67.16.47.31.92.43,1.35.12.43.25.91.38,1.45-.03-.55-.01-1.13.06-1.73.08-.6.21-1.2.41-1.77.2-.58.47-1.11.81-1.6s.78-.89,1.3-1.22c.22-.14.43-.19.62-.16.19.04.33.13.43.28.16.26.24.54.24.82.05.95.18,1.89.38,2.82.2.92.49,1.69.86,2.28.3.49.61.63.93.43.21-.13.36-.34.46-.64.1-.3.18-.69.23-1.19Z"/>
    <path class="st9" d="M176.17,203.42c.61-.47,1.2-.65,1.78-.51.58.13,1.06.44,1.44.93.53.67.89,1.41,1.07,2.2.19.79.26,1.56.21,2.31-.04.75-.19,1.42-.45,2.03-.25.6-.56,1.05-.92,1.33-.59.46-1.17.63-1.75.52-.58-.12-1.09-.45-1.52-1.01-.39-.5-.7-1.11-.92-1.84-.22-.72-.33-1.46-.34-2.2-.01-.75.09-1.46.32-2.14.22-.68.58-1.21,1.09-1.61ZM179.32,210.39c.54-.42.77-1.06.7-1.91-.07-.85-.49-1.77-1.26-2.76-.41-.52-.85-.87-1.33-1.05s-.92-.12-1.32.19c-.55.43-.79,1.06-.72,1.86.08.81.52,1.73,1.33,2.77.48.61.94.98,1.39,1.11.45.13.85.06,1.2-.21Z"/>
    <path class="st9" d="M187.03,204.5c-.15.29-.33.62-.55.97-.22.35-.48.67-.76.94-.19.18-.34.13-.46-.15-.37-.92-.84-1.87-1.41-2.84-.57-.97-1.11-1.8-1.62-2.49-.49-.6-.84-.79-1.06-.58-.24.23-.35.69-.35,1.39-.05.11-.12.16-.21.16s-.16-.05-.18-.14c.01-.56.1-1.11.26-1.65.17-.54.43-.99.79-1.34.24-.23.46-.31.68-.24.22.07.43.21.65.43.29.3.6.69.94,1.16s.67.98,1,1.53c.33.55.65,1.1.95,1.65.3.55.57,1.05.79,1.51.34-.54.58-1.17.72-1.89.14-.72.2-1.45.17-2.18-.03-.73-.17-1.43-.41-2.11s-.58-1.25-1.04-1.72c-.4-.41-.72-.49-.98-.25-.14.14-.23.28-.26.42-.03.14-.03.33.01.56-.02.08-.06.11-.14.09-.08-.02-.13-.06-.16-.12-.06-.28-.04-.65.04-1.12.09-.46.28-.84.58-1.13.25-.24.54-.34.85-.29.31.05.59.21.85.48.44.46.77,1.04.98,1.73.21.7.33,1.45.35,2.26.02.81-.06,1.64-.24,2.5s-.43,1.68-.75,2.45Z"/>
    <path class="st9" d="M192.55,189.17c.96.81.53,2.63-1.26,5.46.15.16.31.31.47.46.16.15.33.3.52.46.44.37.86.55,1.26.55.41,0,.79-.22,1.16-.66.27-.32.46-.72.56-1.22.1-.49.09-.96-.02-1.4.02-.09.08-.13.17-.12.09.02.16.06.21.14.15.71.17,1.45.04,2.22-.12.78-.44,1.46-.93,2.04-.5.59-1,.89-1.52.9-.51.01-1.04-.21-1.58-.67-.52-.44-.97-1.01-1.34-1.71s-.65-1.41-.83-2.16-.22-1.46-.14-2.15.32-1.27.7-1.72.82-.71,1.32-.76.9.05,1.22.32ZM190.09,190.85c-.33.39-.43.87-.3,1.45.13.58.52,1.25,1.19,1.99.6-.88.95-1.6,1.05-2.18.1-.58-.02-1.01-.35-1.29-.25-.21-.53-.32-.83-.32-.3,0-.56.12-.75.35Z"/>
  </g>
  <g>
    <path class="st8" d="M81.67,44.97c17.22-22.2,49.11-26.23,71.31-9.01"/>
    <path class="st9" d="M100.99,7.02c.08,0,.14.04.18.11.04.07.04.19-.01.37-.23,1.05-.33,2.16-.3,3.33.02,1.17.17,2.38.44,3.62.27,1.24.65,2.5,1.14,3.77.49,1.27,1.09,2.51,1.8,3.72.53.91,1.06,1.56,1.57,1.93.51.38,1.04.4,1.6.08.76-.45,1.17-1.4,1.23-2.86.04-.07.09-.1.17-.1.08,0,.13.05.16.14-.03,1.09-.19,2.05-.5,2.9-.31.84-.72,1.42-1.23,1.72-.76.45-1.51.49-2.24.13-.73-.36-1.42-1.08-2.05-2.16-.89-1.52-1.63-3.17-2.21-4.94-.89.52-1.76,1.05-2.62,1.57-.85.53-1.68,1.05-2.47,1.56-.24,1.03-.47,2.01-.71,2.94-.23.93-.48,1.8-.74,2.62-.71,2.28-1.63,4.27-2.78,5.99-1.15,1.72-2.68,3.14-4.6,4.26-1.02.6-1.98.85-2.86.76-.88-.09-1.63-.43-2.24-1.02-.61-.58-1.06-1.36-1.34-2.31-.28-.96-.34-2.01-.17-3.15.03-.07.1-.11.21-.1s.18.08.24.22c-.16.73-.08,1.42.23,2.06.31.64.79,1.15,1.42,1.5.63.36,1.39.53,2.27.5.88-.02,1.82-.32,2.83-.91,1.61-.95,2.93-2.16,3.96-3.66,1.02-1.49,1.83-3.18,2.41-5.05.21-.64.41-1.3.59-1.99.18-.69.37-1.42.56-2.17-.64.43-1.24.84-1.8,1.23-.56.39-1.07.78-1.54,1.15-.11.04-.15,0-.14-.11.01-.11.05-.24.11-.39.06-.15.16-.31.28-.47.12-.16.25-.29.39-.4.24-.16.61-.4,1.13-.72.52-.32,1.1-.68,1.75-1.09.42-1.72.9-3.61,1.45-5.65.55-2.04,1.3-4.29,2.26-6.74-1.52.33-3.03.75-4.55,1.27-1.52.52-2.9,1.15-4.16,1.88-1.42.83-2.36,1.91-2.81,3.24-.45,1.32-.28,2.89.5,4.7.02.12-.01.19-.09.21-.08.02-.15-.01-.23-.09-.86-1.99-1-3.82-.43-5.49.58-1.67,1.79-3.04,3.63-4.12.78-.46,1.63-.88,2.54-1.28.92-.4,1.83-.76,2.75-1.08.92-.32,1.81-.6,2.68-.85.87-.24,1.64-.43,2.32-.58ZM100.59,18.35c-.5-1.54-.85-3.12-1.06-4.74-.21-1.61-.23-3.19-.07-4.74-.88,2.33-1.6,4.51-2.17,6.55-.56,2.04-1.06,3.96-1.48,5.76.9-.55,1.79-1.09,2.67-1.61.88-.52,1.58-.93,2.09-1.23Z"/>
    <path class="st9" d="M115.6,17.17c.12.02.17.08.16.16,0,.08-.1.16-.26.23-.32.06-.7.14-1.11.23-.42.1-.86.21-1.33.34-.24,1.14-.42,2.24-.52,3.29-.1,1.06-.1,1.9.02,2.53.13.74.48,1.05,1.04.95.56-.1,1.1-.7,1.62-1.8.06-.06.12-.07.18-.03.06.04.09.11.09.22-.26.67-.63,1.28-1.11,1.83-.48.55-1,.87-1.54.96-.56.1-1,.04-1.32-.18-.32-.22-.52-.57-.61-1.05-.11-.63-.12-1.52-.01-2.68s.29-2.35.56-3.59c-.55.17-1.06.35-1.51.54-.11,0-.15-.05-.11-.15.04-.1.12-.21.24-.33.12-.12.28-.24.46-.35.18-.11.36-.18.53-.21.09-.01.17-.03.26-.05.09-.01.17-.04.25-.08.17-.68.35-1.34.55-1.98.2-.64.41-1.22.62-1.75.1-.17.26-.34.46-.5.21-.16.41-.29.62-.39.2-.1.38-.17.52-.21.14-.04.21,0,.2.08-.27.63-.52,1.32-.75,2.08-.23.76-.44,1.54-.63,2.36.41-.09.82-.18,1.24-.26s.82-.15,1.19-.21Z"/>
    <path class="st9" d="M122.7,18.35c.07,1.25-1.55,2.2-4.84,2.84-.01.22-.01.44-.01.66,0,.22,0,.45.02.69.03.57.19,1,.47,1.3.28.29.71.42,1.28.39.42-.02.84-.17,1.27-.43.43-.27.76-.59,1-.98.09-.05.15-.03.2.04.05.07.06.16.05.25-.41.6-.94,1.11-1.59,1.56-.65.44-1.36.68-2.13.72-.77.04-1.33-.12-1.7-.49s-.56-.9-.6-1.6c-.04-.68.07-1.4.32-2.15.25-.75.58-1.45,1-2.09.42-.64.91-1.17,1.47-1.58s1.14-.64,1.73-.67c.59-.03,1.08.11,1.46.44.38.32.58.69.6,1.11ZM119.79,17.71c-.51.03-.93.29-1.26.78-.34.49-.55,1.23-.62,2.23,1.05-.17,1.82-.41,2.31-.74.49-.32.72-.7.7-1.14-.02-.33-.13-.61-.34-.82-.21-.22-.47-.32-.78-.31Z"/>
    <path class="st9" d="M139,1.64c.33.02.59.12.79.29.2.18.33.41.39.68s.05.59-.02.94c-.08.35-.22.69-.44,1.03-.05.04-.1.04-.16,0-.06-.05-.1-.11-.12-.17.06-.26-.02-.49-.24-.68s-.57-.3-1.05-.33c-.9-.05-1.83.23-2.78.84-.95.62-1.89,1.45-2.81,2.5-.92,1.05-1.8,2.26-2.63,3.64s-1.57,2.81-2.21,4.3c-.64,1.48-1.16,2.96-1.57,4.43-.41,1.47-.65,2.83-.72,4.06-.04.66.13,1,.5,1.02.26.02.53-.08.79-.28.26-.2.58-.52.93-.94.07-.04.13-.03.18.03s.06.13.04.22c-.48.63-1.03,1.15-1.65,1.55-.62.4-1.17.59-1.65.56-.42-.02-.7-.16-.85-.41-.15-.25-.21-.56-.19-.94.06-1.03.36-2.31.89-3.83.53-1.52,1.22-3.12,2.06-4.8.84-1.68,1.79-3.35,2.86-5,1.07-1.66,2.17-3.14,3.29-4.45,1.12-1.31,2.24-2.36,3.35-3.16,1.11-.79,2.12-1.16,3.04-1.11Z"/>
    <path class="st9" d="M129.55,19.64c-.07.03-.12,0-.16-.07s-.03-.16,0-.22c.91-.53,2.13-1.03,3.67-1.5.17.03.25.14.22.33-.36.46-.72.96-1.08,1.5-.36.54-.69,1.09-.99,1.63-.3.54-.55,1.07-.76,1.58-.21.51-.35.94-.4,1.29-.07.44.05.68.36.72.24.04.49-.03.75-.2.26-.17.57-.4.92-.68.05-.04.1-.02.16.04.06.06.05.15,0,.25-.57.49-1.11.88-1.63,1.15-.52.28-1,.38-1.43.31-.76-.12-1.09-.54-.98-1.25.06-.39.19-.84.39-1.36.2-.51.45-1.03.74-1.56.29-.52.6-1.03.94-1.53.33-.49.66-.92.98-1.27-.26.09-.55.22-.88.37-.32.15-.6.3-.82.44ZM133.6,16.49c-.08.06-.15.04-.21-.03-.07-.08-.11-.18-.14-.3-.02-.13-.03-.26,0-.4.02-.14.07-.26.16-.36.29-.27.7-.6,1.24-1,.54-.39,1.08-.72,1.63-.97.05-.01.1,0,.16.07.06.06.07.12.04.16-.52.34-1.03.77-1.53,1.28-.5.51-.95,1.03-1.34,1.55Z"/>
    <path class="st9" d="M141.07,21.63c-.34,1.21-2.17,1.59-5.49,1.14-.08.21-.16.41-.22.62-.07.21-.14.43-.2.66-.15.55-.14,1.01.03,1.38.17.37.53.63,1.08.78.4.11.85.11,1.34,0,.49-.12.91-.32,1.27-.61.1-.02.15.02.18.1.02.08,0,.17-.03.25-.58.43-1.24.76-2,.97-.76.21-1.5.22-2.25,0-.74-.21-1.23-.54-1.45-1-.23-.46-.24-1.03-.05-1.71.18-.66.51-1.3.98-1.94.47-.63,1.01-1.19,1.61-1.66.6-.47,1.23-.82,1.9-1.03.67-.21,1.28-.24,1.86-.08.57.16.99.45,1.25.88.26.43.33.84.22,1.24ZM138.51,20.09c-.49-.13-.97-.02-1.45.33-.48.36-.91,1-1.3,1.92,1.05.18,1.85.19,2.42.04.57-.15.91-.44,1.03-.86.09-.32.07-.61-.06-.89-.13-.28-.34-.46-.64-.54Z"/>
    <path class="st9" d="M145.66,22.85c-.13.3-.31.63-.53.99-.22.36-.47.72-.75,1.08.82-.8,1.59-1.37,2.31-1.71.72-.34,1.36-.39,1.93-.14.3.13.5.3.61.51s.1.43,0,.65c-.09.2-.28.43-.57.69-.29.26-.51.43-.67.51-.05,0-.09-.02-.11-.07-.03-.05-.03-.09-.02-.13.06-.14.06-.29-.01-.44-.07-.15-.21-.27-.44-.37-.71-.3-1.56-.1-2.54.62-.99.71-2.11,1.87-3.37,3.46-.06.09-.17.15-.32.17-.15.02-.31.02-.49,0-.17-.01-.35-.04-.52-.08-.17-.04-.32-.08-.44-.14-.22-.1-.23-.24-.03-.44.36-.35.74-.73,1.12-1.15.38-.42.75-.86,1.11-1.3.36-.44.69-.88.99-1.32.3-.43.57-.84.81-1.21.17-.29.28-.51.34-.68s0-.28-.15-.35c-.2-.09-.45-.09-.73,0-.29.08-.58.21-.87.4-.11.03-.19,0-.23-.08-.05-.08-.04-.15.04-.22.19-.11.41-.21.65-.31.25-.1.51-.18.78-.24.28-.06.55-.09.83-.09.28,0,.54.05.78.15.32.14.51.31.57.51s.02.45-.1.73Z"/>
  </g>
  <path class="st3" d="M127.76,140.06c-.3.2-.3.6-.1.9s.5.5.8.6c.4.2,1,.2,1.3-.2.2-.2.2-.5.2-.8v-.7c0-.2-.2-.3-.4-.4-.2-.1-.5-.2-.8-.3h-.3c-.1,0-.2.1-.3.2-.2.2-.4.6-.4.9v.5c0,.1.2.2.3.2.3.1.7.2,1,0s.6-.5.4-.9c-.1-.3-.5-.4-.8-.5h-.2s-.2.1-.2.2-.2.3-.2.4,0,.4.2.4h.3c.2,0,.5,0,.7-.2s.2-.4,0-.7c-.1-.2-.4-.3-.6-.2s-.4.3-.3.5.4.3.5.1,0-.5-.1-.5-.3,0-.3.2,0,.3.1.3"/>
  <path class="st3" d="M104.25,140.16c-.3,0-.5.3-.4.6s.3.5.5.6.5.1.8.1c.2,0,.5,0,.7-.1s.4-.3.4-.5c0-.4-.2-.7-.5-1-.4-.3-.9-.6-1.4-.4-.2,0-.3.2-.5.3-.2.2-.4.4-.4.7,0,.4.5.6.9.7.2,0,.4.1.6,0,.1,0,.2-.2.3-.3.2-.3.3-.7.1-.9s-.5-.1-.6,0-.2.5,0,.7c.2.2.4.3.6.4.2,0,.4,0,.5-.2s-.2-.5-.4-.6c-.1,0-.3-.2-.5-.2s-.3.1-.3.3c0,.1.1.2.2.3h.3c.1,0,.2-.2.2-.3s-.2-.2-.3,0,0,.3.1.2"/>
  <path class="st2" d="M190.62,136.17c-1.38-.71-2.46-1.03-1.83-2.45,4.39-9.88,9.64-19.32,14.19-29.18,2.09-4.53,2.34-5.24,4.06-9.94.25-.57,2.35-7.36,2.6-7.92.7-1.51.2,4.01.07,4.54-.47,1.9-1.28,4.96-1.7,6.44-3.47,12.29-9.35,23.81-14.23,36.02-.42,1.05-1.2,1.83-1.65,2.92-.12.28-.46.04-.88-.06-.14-.14-.42-.27-.63-.37Z"/>
  <path class="st9" d="M190.82,136.82c.12.16.53,1.08.44,1.21l-1.1.12c-.09.4.21.88.09,1.25-.1.32-.59.28-.64.47-.04.18.3.5.17.93-.08.25-.89,1.07-.95.69-.02-.11.08-.28-.11-.25l-2.64,10.43c-1.1,4.62-6.77,7.16-9.18,10.68-.17.24-.38.47-.44.77-.07,0-.15,0-.22,0,.04-.21.05-.47.11-.66,1.22-4.07.56-7.94,2.67-11.75,1.83-3.3,4.21-6.41,6.08-9.73.22-.4.45-1.16.64-1.43.09-.13.33-.17.4-.3.09-.17-.16-.36-.19-.61-.09-.8.54-.7,1-1.11.12-.27-.51-.07-.25-.69.2-.48.75-.44,1.02-1.02.93-.12,2.5.23,3.09.99ZM189.58,137.84c-.11-.19-1.4-.69-1.24-.25.03.07.44.62.39.66-.19,0-1.11-.07-1.1.17,0,.08,1.17.83,1.36.8.51-.06.86-.94.6-1.38ZM182.98,152.84s-.15-.05-.22.08-.08.51-.11.69c.3-.13.34-.52.44-.77.22-.56.39-.74.58-1.13,1.74-3.6,2.56-7.58,4.26-11.21.08-.23-.33-.22-.47-.27-.86,2.46-2.27,4.84-3.14,7.27-.44,1.24-.93,4.58-1.35,5.33Z"/>
  <path class="st6" d="M187.69,135.92c-.66-.08-1.09-.76-.82-1.37,4.58-10.71,10.27-20.85,15.14-31.48,2.1-4.59,2.36-5.3,4.09-10.05.25-.58,2.36-7.45,2.62-8.01.7-1.53.2,4.07.07,4.59-.48,1.92-1.29,5.02-1.71,6.52-3.43,12.21-9.38,23.99-14.33,36.43-.42,1.06.04,1.65-.88,3.05-.17.26-.57,1.39-1,1.3-.42-.44-2.4-.88-3.18-.97Z"/>
</svg>