<?xml version="1.0" encoding="UTF-8"?>
<svg id="Calque_1" data-name="Calque 1" xmlns="http://www.w3.org/2000/svg" viewBox="0 0 144.75 35.9">
  <g id="CD">
    <path d="M31.75,28.85c-3.2,4.1-8.2,6.7-13.8,6.7C8.25,35.55.35,27.65.35,17.95S8.25.35,17.95.35s15.3,6,17.3,13.5c-.2,0-.4-.2-.4-.2l-4.6-3c-2.3-4.6-6.8-7-12.3-7S3.75,10.15,3.75,17.95s3.3,10.5,8,12.8V9.75c16.4-.4,26.8,6.5,21,17.5-.3.5-.4.8-1,1.7" style="fill: none; stroke: #ededed; stroke-miterlimit: 10; stroke-width: .7px;"/>
    <path d="M25.65,29.85c-2.2,1.4-4.9,2.3-7.7,2.3s-2.1-.1-3.2-.4V12.95c12.8,0,19.3,6.5,14.4,13.6-.1.2,0-.1-.4.5-.9,1.1-2,2.1-3.2,2.9l.1-.1Z" style="fill: none; stroke: #ededed; stroke-miterlimit: 10; stroke-width: .7px;"/>
  </g>
  <g style="isolation: isolate;">
    <g style="isolation: isolate;">
      <path d="M42.85,18.45c.7-1.3,1.6-2.3,2.8-3.1,1.2-.7,2.6-1.1,4.1-1.1s3.6.5,4.9,1.4,2.2,2.2,2.8,3.8h-.5c-.5-1.4-1.4-2.6-2.6-3.4s-2.8-1.3-4.6-1.3-2.6.3-3.7,1-2,1.6-2.7,2.9c-.6,1.2-1,2.7-1,4.4s.3,3.1,1,4.3c.6,1.2,1.5,2.2,2.7,2.8s2.4,1,3.7,1,3.4-.4,4.6-1.3c1.2-.9,2.1-2,2.6-3.4h.5c-.6,1.6-1.5,2.9-2.8,3.8s-2.9,1.4-4.9,1.4-2.9-.4-4.1-1.1c-1.2-.7-2.1-1.7-2.8-3s-1-2.8-1-4.5.3-3.2,1-4.5v-.1Z" style="fill: #ededed;"/>
      <path d="M70.15,31.35l-4.5-7.4h-4.2v7.4h-.5V14.45h4.2c1.9,0,3.2.4,4.1,1.3.9.8,1.4,2,1.4,3.5s-.4,2.4-1.2,3.3c-.8.8-1.9,1.3-3.3,1.5l4.6,7.4h-.6v-.1ZM65.15,23.55c1.6,0,2.9-.4,3.7-1.2.8-.8,1.2-1.8,1.2-3.1,0-2.8-1.7-4.3-5-4.3h-3.7v8.6s3.8,0,3.8,0Z" style="fill: #ededed;"/>
      <path d="M74.25,14.95v7.8h7.1v.4h-7.1v7.8h7.8v.4h-8.3V14.45h8.3v.4h-7.8v.1Z" style="fill: #ededed;"/>
      <path d="M94.55,26.75h-8.4l-1.8,4.7h-.6l6.3-16.4h.5l6.2,16.4h-.6l-1.8-4.7h.2ZM94.45,26.25l-4-10.5-4,10.5h8Z" style="fill: #ededed;"/>
      <path d="M110.75,16.65c1.5,1.5,2.3,3.6,2.3,6.2s-.8,4.8-2.3,6.2c-1.5,1.5-3.7,2.2-6.6,2.2h-4.4V14.45h4.4c2.9,0,5.1.7,6.6,2.2ZM110.45,28.85c1.4-1.4,2.1-3.4,2.1-5.9s-.7-4.5-2.1-5.9-3.5-2.1-6.3-2.1h-4v16h4c2.8,0,4.9-.7,6.3-2.1Z" style="fill: #ededed;"/>
      <path d="M119.85,30.45c-1.2-.7-2.2-1.7-2.9-3.1-.7-1.3-1-2.8-1-4.5s.3-3.2,1-4.5,1.6-2.3,2.9-3.1c1.2-.7,2.6-1.1,4.2-1.1s2.9.4,4.2,1.1c1.2.7,2.2,1.7,2.9,3.1.7,1.3,1,2.8,1,4.5s-.3,3.2-1,4.5-1.6,2.3-2.9,3.1c-1.2.7-2.6,1.1-4.2,1.1s-2.9-.4-4.2-1.1ZM127.85,30.15c1.2-.7,2.1-1.6,2.7-2.9s1-2.7,1-4.3-.3-3.1-1-4.3-1.6-2.2-2.7-2.9c-1.2-.7-2.4-1-3.8-1s-2.7.3-3.8,1c-1.2.7-2.1,1.6-2.7,2.9s-1,2.7-1,4.3.3,3.1,1,4.3,1.6,2.2,2.7,2.9c1.2.7,2.4,1,3.8,1s2.7-.3,3.8-1Z" style="fill: #ededed;"/>
      <path d="M139.75,22.95l5,8.4h-.6l-4.8-8.1-4.7,8.1h-.6l4.9-8.6-4.9-8.3h.6l4.7,8,4.7-8h.6l-5,8.4.1.1Z" style="fill: #ededed;"/>
    </g>
  </g>
</svg>