<?xml version="1.0" encoding="UTF-8"?>
<svg id="Calque_1" xmlns="http://www.w3.org/2000/svg" version="1.1" viewBox="0 0 146.6 35.6">
  <!-- Generator: Adobe Illustrator 29.8.3, SVG Export Plug-In . SVG Version: 2.1.1 Build 3)  -->
  <defs>
    <style>
      .st0 {
        isolation: isolate;
      }

      .st1 {
        fill: none;
        stroke: #1d1d1b;
        stroke-miterlimit: 10;
        stroke-width: .7px;
      }
    </style>
  </defs>
  <g id="CD">
    <path class="st1" d="M31.6,28.7c-3.2,4.1-8.2,6.7-13.8,6.7C8.1,35.4.2,27.5.2,17.8S8.1.2,17.8.2s15.3,6,17.3,13.5c-.2,0-.4-.2-.4-.2l-4.6-3c-2.3-4.6-6.8-7-12.3-7S3.6,10,3.6,17.8s3.3,10.5,8,12.8V9.6c16.4-.4,26.8,6.5,21,17.5-.3.5-.4.8-1,1.7"/>
    <path class="st1" d="M25.5,29.7c-2.2,1.4-4.9,2.3-7.7,2.3s-2.1-.1-3.2-.4V12.8c12.8,0,19.3,6.5,14.4,13.6-.1.2,0-.1-.4.5-.9,1.1-2,2.1-3.2,2.9Z"/>
  </g>
  <g class="st0">
    <g class="st0">
      <path d="M42.7,18.3c.7-1.3,1.6-2.3,2.8-3.1,1.2-.7,2.6-1.1,4.1-1.1s3.6.5,4.9,1.4,2.2,2.2,2.8,3.8h-.5c-.5-1.4-1.4-2.6-2.6-3.4s-2.8-1.3-4.6-1.3-2.6.3-3.7,1-2,1.6-2.7,2.9c-.6,1.2-1,2.7-1,4.4s.3,3.1,1,4.3c.6,1.2,1.5,2.2,2.7,2.8s2.4,1,3.7,1,3.4-.4,4.6-1.3c1.2-.9,2.1-2,2.6-3.4h.5c-.6,1.6-1.5,2.9-2.8,3.8-1.3.9-2.9,1.4-4.9,1.4s-2.9-.4-4.1-1.1c-1.2-.7-2.1-1.7-2.8-3-.7-1.3-1-2.8-1-4.5s.3-3.2,1-4.5Z"/>
      <path d="M70,31.2l-4.5-7.4h-4.2v7.4h-.5V14.3h4.2c1.9,0,3.2.4,4.1,1.3.9.8,1.4,2,1.4,3.5s-.4,2.4-1.2,3.3c-.8.8-1.9,1.3-3.3,1.5l4.6,7.4h-.6ZM65,23.4c1.6,0,2.9-.4,3.7-1.2.8-.8,1.2-1.8,1.2-3.1,0-2.8-1.7-4.3-5-4.3h-3.7v8.6h3.8Z"/>
      <path d="M74.1,14.8v7.8h7.1v.4h-7.1v7.8h7.8v.4h-8.3V14.3h8.3v.4h-7.8Z"/>
      <path d="M94.4,26.6h-8.4l-1.8,4.7h-.6l6.3-16.4h.5l6.2,16.4h-.6l-1.8-4.7ZM94.3,26.1l-4-10.5-4,10.5h8Z"/>
      <path d="M110.6,16.5c1.5,1.5,2.3,3.6,2.3,6.2s-.8,4.8-2.3,6.2c-1.5,1.5-3.7,2.2-6.6,2.2h-4.4V14.3h4.4c2.9,0,5.1.7,6.6,2.2ZM110.3,28.7c1.4-1.4,2.1-3.4,2.1-5.9s-.7-4.5-2.1-5.9c-1.4-1.4-3.5-2.1-6.3-2.1h-4v16h4c2.8,0,4.9-.7,6.3-2.1Z"/>
      <path d="M119.7,30.3c-1.2-.7-2.2-1.7-2.9-3.1-.7-1.3-1-2.8-1-4.5s.3-3.2,1-4.5c.7-1.3,1.6-2.3,2.9-3.1,1.2-.7,2.6-1.1,4.2-1.1s2.9.4,4.2,1.1c1.2.7,2.2,1.7,2.9,3.1.7,1.3,1,2.8,1,4.5s-.3,3.2-1,4.5c-.7,1.3-1.6,2.3-2.9,3.1-1.2.7-2.6,1.1-4.2,1.1s-2.9-.4-4.2-1.1ZM127.7,30c1.2-.7,2.1-1.6,2.7-2.9s1-2.7,1-4.3-.3-3.1-1-4.3-1.6-2.2-2.7-2.9c-1.2-.7-2.4-1-3.8-1s-2.7.3-3.8,1c-1.2.7-2.1,1.6-2.7,2.9s-1,2.7-1,4.3.3,3.1,1,4.3,1.6,2.2,2.7,2.9c1.2.7,2.4,1,3.8,1s2.7-.3,3.8-1Z"/>
      <path d="M139.6,22.8l5,8.4h-.6l-4.8-8.1-4.7,8.1h-.6l4.9-8.6-4.9-8.3h.6l4.7,8,4.7-8h.6l-5,8.4Z"/>
    </g>
  </g>
</svg>