<?xml version="1.0" encoding="UTF-8"?>
<svg id="Calque_1" data-name="Calque 1" xmlns="http://www.w3.org/2000/svg" viewBox="0 0 167.3596 35.6951">
  <g id="CD">
    <path d="M31.6622,28.7496c-3.2228,4.0783-8.2131,6.6955-13.8147,6.6955C8.1287,35.4451.25,27.5664.25,17.8476S8.1287.25,17.8476.25c8.1782,0,15.3413,5.9961,17.3112,13.5493-.1832-.092-.3655-.1843-.3655-.1843l-4.6414-2.9854c-2.3296-4.637-6.753-6.9764-12.3042-6.9764-7.8394,0-14.1945,6.3551-14.1945,14.1945,0,5.6295,3.2772,10.4936,8.028,12.7886V9.6301c16.4151-.4142,26.782,6.5491,20.9671,17.4948-.29.5459-.3753.8017-.9979,1.6504" style="fill: none; stroke: #1d1d1b; stroke-miterlimit: 10; stroke-width: .5px;"/>
    <path d="M25.5336,29.7828c-2.215,1.4296-4.8536,2.2592-7.6861,2.2592-1.0846,0-2.1408-.1217-3.1557-.3521V12.8299c12.8293.0463,19.304,6.5298,14.43,13.5878-.1071.1551.0954-.1148-.3511.4938-.9248,1.1136-2.0166,2.0835-3.2371,2.8713Z" style="fill: none; stroke: #1d1d1b; stroke-miterlimit: 10; stroke-width: .5px;"/>
  </g>
  <g>
    <path d="M53.8713,19.1798c-.4365-.7422-1.0137-1.3247-1.7334-1.748s-1.5215-.6348-2.4072-.6348c-.7549,0-1.4453.1597-2.0703.4785s-1.1602.7471-1.6064,1.2842-.793,1.1587-1.04,1.8652-.3711,1.4502-.3711,2.2314c0,.9243.1367,1.7432.4102,2.4556.2734.7129.6299,1.3057,1.0693,1.7773.4395.4727.9619.8662,1.5674,1.1816s1.2861.4736,2.041.4736c1.0283,0,1.9238-.249,2.6855-.7471s1.4131-1.3164,1.9531-2.4561l1.7188.8105c-.2471.7031-.667,1.3818-1.2598,2.0361s-1.3232,1.1816-2.1924,1.582-1.8311.6006-2.8857.6006c-1.0088,0-1.9365-.1904-2.7832-.5713s-1.5996-.9229-2.2607-1.626-1.165-1.5361-1.5137-2.5c-.3486-.9629-.5225-1.9688-.5225-3.0171,0-1.0547.1738-2.0508.5225-2.9883s.8369-1.7529,1.4648-2.4463,1.377-1.2402,2.2461-1.6406,1.8115-.6006,2.8271-.6006c.9053,0,1.6865.1284,2.3438.3857s1.2158.563,1.6748.918.8545.7407,1.1865,1.1572h1.0352v1.7383h-2.0996v.0004Z"/>
    <path d="M56.5432,25.0192c.0068-.8003.1348-1.5293.3857-2.187s.6006-1.2222,1.0498-1.6943.9834-.835,1.6016-1.0889,1.2988-.3809,2.041-.3809c.749,0,1.4336.127,2.0557.3809s1.1543.6138,1.5967,1.0791.7881,1.0269,1.0352,1.6846.3711,1.3867.3711,2.187c0,.7881-.124,1.5127-.3711,2.1729-.2471.6611-.5928,1.2285-1.0352,1.7041s-.9746.8447-1.5967,1.1084-1.3066.3955-2.0557.3955c-.7617,0-1.4521-.1299-2.0703-.3906s-1.1494-.627-1.5918-1.0986-.7881-1.0361-1.0352-1.6943c-.2471-.6572-.374-1.3828-.3809-2.1777v-.0002ZM58.467,25.0192c0,.5801.083,1.1035.249,1.5723s.3936.8682.6836,1.1963c.29.3291.625.583,1.0059.7617s.7861.2686,1.2158.2686c.4492,0,.8672-.0879,1.2549-.2637s.7246-.4277,1.0107-.7568c.2861-.3281.5107-.7275.6738-1.1963s.2441-.9961.2441-1.582c0-.6113-.0811-1.1553-.2441-1.6304s-.3857-.8726-.6689-1.1914-.6201-.5601-1.0107-.7227-.8105-.2441-1.2598-.2441c-.4297,0-.835.0815-1.2158.2441s-.7158.4038-1.0059.7227c-.2901.3189-.5176.7163-.6836,1.1914s-.249,1.019-.249,1.6304h0Z"/>
    <path d="M74.9182,22.0997h-1.8555v-.625c-.2148,0-.4346.0405-.6592.1221s-.4346.2051-.6299.3711-.3662.3774-.5127.6348-.252.5615-.3174.9131v4.8823h1.7188v1.6797h-5.0195v-1.6797h1.3965l.0098-6.7573h-1.4062v-1.6797h3.2324v1.3965c.1172-.2085.249-.4019.3955-.5811s.3096-.3354.4883-.4688.3779-.2378.5957-.3125.4541-.1123.708-.1123h.957c.2998,0,.5986.0063.8984.0195,0,0,0,2.1973,0,2.1973Z"/>
    <path d="M75.9396,14.883h3.2812v13.5151h1.5234v1.6797h-4.8047v-1.6797h1.4648v-11.8354h-1.4648v-1.6797h.0001Z"/>
    <path d="M87.6154,19.9611h3.2617v8.437h1.123v1.6797h-2.9492v-.9375c-.4561.3516-.9521.625-1.4893.8203s-1.1113.293-1.7236.293c-.5078,0-.9688-.0732-1.3818-.2197s-.7646-.374-1.0547-.6836-.5127-.7012-.6689-1.1768c-.1562-.4746-.2344-1.041-.2344-1.6992v-4.8335h-1.3672v-1.6797h3.2617v6.2983c0,.7754.1787,1.3613.5371,1.7578.3584.3975.8721.5957,1.543.5957.3975,0,.8154-.0713,1.2549-.2148s.8545-.3418,1.2451-.5957v-6.1616h-1.3574s0-1.6797,0-1.6797Z"/>
    <path d="M93.0314,19.9611h3.8379v1.6797h-1.2012l2.373,6.4546,2.4805-6.4546h-1.1914v-1.6797h3.8379v1.6797h-1.0449l-4.502,11.3569h1.3867v1.6797h-4.082v-1.6797h1.2305l1.0742-2.7832-3.3789-8.5737h-.8203s0-1.6797,0-1.6797Z"/>
    <path d="M107.9846,15.2736h5.5078c.6768,0,1.3213.0879,1.9336.2637s1.1816.4233,1.709.7422,1.0059.7017,1.4355,1.1475.7959.9424,1.0986,1.4893.5352,1.1343.6982,1.7627.2441,1.2808.2441,1.958c0,.6899-.0811,1.3511-.2441,1.9819-.1631.6318-.3955,1.2246-.6982,1.7773-.3027.5537-.6689,1.0566-1.0986,1.5088s-.9082.8398-1.4355,1.1621-1.0967.5713-1.709.7471-1.2568.2637-1.9336.2637h-5.5078v-1.6797h1.4062v-11.4351h-1.4062v-1.6895ZM111.3049,16.963v11.4351h2.3047c.6836,0,1.3262-.1494,1.9287-.4492.6025-.2988,1.1279-.708,1.5771-1.2256s.8037-1.126,1.0645-1.8262c.2607-.6992.3906-1.4531.3906-2.2603,0-.7944-.1299-1.5366-.3906-2.2266s-.6152-1.2905-1.0645-1.8018-.9746-.9131-1.5771-1.2061-1.2451-.4395-1.9287-.4395h-2.3047v.0002Z"/>
    <path d="M121.1447,25.0192c.0068-.8003.1348-1.5293.3857-2.187s.6006-1.2222,1.0498-1.6943.9834-.835,1.6016-1.0889,1.2988-.3809,2.041-.3809c.749,0,1.4336.127,2.0557.3809s1.1543.6138,1.5967,1.0791.7881,1.0269,1.0352,1.6846.3711,1.3867.3711,2.187c0,.7881-.124,1.5127-.3711,2.1729-.2471.6611-.5928,1.2285-1.0352,1.7041s-.9746.8447-1.5967,1.1084-1.3066.3955-2.0557.3955c-.7617,0-1.4521-.1299-2.0703-.3906s-1.1494-.627-1.5918-1.0986-.7881-1.0361-1.0352-1.6943c-.2471-.6572-.374-1.3828-.3809-2.1777v-.0002ZM123.0686,25.0192c0,.5801.083,1.1035.249,1.5723s.3936.8682.6836,1.1963c.29.3291.625.583,1.0059.7617s.7861.2686,1.2158.2686c.4492,0,.8672-.0879,1.2549-.2637s.7246-.4277,1.0107-.7568c.2861-.3281.5107-.7275.6738-1.1963s.2441-.9961.2441-1.582c0-.6113-.0811-1.1553-.2441-1.6304s-.3857-.8726-.6689-1.1914-.6201-.5601-1.0107-.7227-.8105-.2441-1.2598-.2441c-.4297,0-.835.0815-1.2158.2441s-.7158.4038-1.0059.7227c-.2901.3189-.5176.7163-.6836,1.1914s-.249,1.019-.249,1.6304h0Z"/>
    <path d="M139.5197,22.0997h-1.8555v-.625c-.2148,0-.4346.0405-.6592.1221s-.4346.2051-.6299.3711-.3662.3774-.5127.6348-.252.5615-.3174.9131v4.8823h1.7188v1.6797h-5.0195v-1.6797h1.3965l.0098-6.7573h-1.4062v-1.6797h3.2324v1.3965c.1172-.2085.249-.4019.3955-.5811s.3096-.3354.4883-.4688.3779-.2378.5957-.3125.4541-.1123.708-.1123h.957c.2998,0,.5986.0063.8984.0195v2.1973Z"/>
    <path d="M140.5412,19.9611h3.3008v8.437h1.5234v1.6797h-4.8047v-1.6797h1.4453v-6.7573h-1.4648v-1.6797ZM141.6643,16.3771c0-.1694.0342-.3306.1025-.4834s.1592-.2866.2734-.4004.249-.2051.4053-.2734.3223-.1025.498-.1025c.1689,0,.3301.0342.4834.1025s.2861.1597.4004.2734.2051.2476.2734.4004.1025.314.1025.4834c0,.1758-.0342.3418-.1025.498s-.1592.2944-.2734.415-.2471.2148-.4004.2832-.3145.1025-.4834.1025c-.1758,0-.3418-.0342-.498-.1025s-.291-.1626-.4053-.2832-.2051-.2588-.2734-.415-.1025-.3223-.1025-.498Z"/>
    <path d="M151.9826,29.1403c-.3838.3584-.8086.6514-1.2744.8789s-.9941.3418-1.5869.3418c-.4951,0-.9492-.0781-1.3623-.2344s-.7695-.3691-1.0693-.6396-.5322-.584-.6982-.9424-.249-.7383-.249-1.1426c0-.4297.0635-.8105.1904-1.1426s.2959-.6201.5078-.8643.459-.4492.7422-.6152.5791-.2988.8887-.3999.625-.1724.9473-.2148.6299-.0635.9229-.0635c.4688,0,.8623.0146,1.1816.0439s.6084.0698.8691.1221l.0098-.8301c0-.3579-.0518-.6689-.1562-.9326s-.251-.4819-.4395-.6543-.415-.3013-.6787-.3857-.5586-.127-.8838-.127c-.3057,0-.5986.021-.8789.0635s-.542.0977-.7861.166-.4688.1465-.6738.2344-.3789.1807-.5225.2783l-.5957-1.2598c.2412-.1562.5049-.3013.791-.4346s.5879-.2476.9033-.3418.6377-.1694.9668-.2246.6523-.083.9717-.083c.5859,0,1.1133.0698,1.582.21s.8662.3564,1.1914.6494.5762.6655.752,1.1182c.1758.4527.2637.9946.2637,1.626l-.0098,5.0581h1.123v1.6797h-2.9395v-.9375h0ZM149.5217,28.8375c.2412,0,.4814-.0293.7227-.0879s.4688-.1387.6836-.2393.4131-.2178.5957-.3516.335-.2725.459-.415l.0098-2.2852h-2.1094c-.3516,0-.6719.0391-.9619.1172s-.54.1924-.752.3418c-.2119.1504-.376.3359-.4932.5566-.1172.2217-.1758.4756-.1758.7617,0,.2676.0488.5.1465.6982s.2363.3643.415.498.3926.2344.6396.3027.5205.1025.8203.1025v.0003Z"/>
    <path d="M162.633,28.3981h1.4258v-4.6187c0-.7749-.1973-1.3623-.5908-1.7627s-.959-.6006-1.6943-.6006c-.4229,0-.8496.1011-1.2793.3027s-.8369.4526-1.2207.752v5.9272h1.4258v1.6797h-4.7266v-1.6797h1.4062v-6.7573h-1.4062v-1.6797h3.2227v1.1914h.0195c.2148-.189.4443-.3677.6885-.5371s.5-.3159.7666-.4395.5449-.2212.835-.293.5938-.1074.9131-.1074c.54,0,1.0283.0747,1.4648.2246s.8076.3774,1.1133.6836.542.6982.708,1.1768.249,1.0435.249,1.6943v4.8433h1.4062v1.6797h-4.7266v-1.6797h0Z"/>
  </g>
</svg>