<?xml version="1.0" encoding="UTF-8"?>
<svg id="Calque_1" data-name="Calque 1" xmlns="http://www.w3.org/2000/svg" viewBox="0 0 35.4137 35.5951">
  <g id="CD">
    <path d="M31.6122,28.6996c-3.2228,4.0783-8.2131,6.6955-13.8147,6.6955C8.0787,35.3951.2,27.5164.2,17.7976S8.0787.2,17.7976.2c8.1782,0,15.3413,5.9961,17.3112,13.5493-.1832-.092-.3655-.1843-.3655-.1843l-4.6414-2.9854c-2.3296-4.637-6.753-6.9764-12.3042-6.9764-7.8394,0-14.1945,6.3551-14.1945,14.1945,0,5.6295,3.2772,10.4936,8.028,12.7886V9.5801c16.4151-.4142,26.782,6.5491,20.9671,17.4948-.29.5459-.3753.8017-.9979,1.6504" style="fill: none; stroke: #fff; stroke-miterlimit: 10; stroke-width: .4px;"/>
    <path d="M25.4836,29.7328c-2.215,1.4296-4.8536,2.2592-7.6861,2.2592-1.0846,0-2.1408-.1217-3.1557-.3521,0-.4419,0-17.4608,0-18.86,12.8293.0463,19.304,6.5298,14.43,13.5878-.1071.1551.0954-.1148-.3511.4938-.9248,1.1136-2.0166,2.0835-3.2371,2.8713Z" style="fill: none; stroke: #fff; stroke-miterlimit: 10; stroke-width: .4px;"/>
  </g>
</svg>